o main
v 0.021111 -0.094801 0.028551
v 0.021111 -0.094801 -0.043334
v 0.021111 0.075483 0.065923
v 0.026111 0.084233 -0.035961
v 0.021111 -0.081372 -0.050531
v 0.021111 0.075483 -0.019681
v 0.021111 0.075483 0.180757
v 0.026111 0.084233 0.189923
v -0.028889 -0.094801 0.028551
v -0.028889 -0.094801 -0.043334
v -0.028889 0.075483 0.065923
v -0.033889 0.084233 -0.035961
v -0.028889 -0.081372 -0.050531
v -0.028889 0.075483 -0.019681
v -0.028889 0.075483 0.180757
v -0.033889 0.084233 0.189923
v 0.026111 0.084233 0.070000
v -0.033889 0.084233 0.070000
v -0.028889 -0.081372 0.031498
v 0.021111 -0.081372 0.031498
v -0.033889 0.084233 0.130000
v 0.026111 0.084233 0.130000
v -0.033889 0.154233 0.130000
v 0.026111 0.154233 0.130000
v 0.026111 0.154233 0.189923
v -0.033889 0.154233 0.189923
v 0.026111 0.154233 0.309923
v -0.033889 0.154233 0.309923
v -0.033889 0.094169 0.309923
v -0.033889 0.084233 0.299988
v 0.026111 0.094169 0.309923
v 0.026111 0.084233 0.299988
v 0.006111 0.084233 0.130000
v -0.013889 0.084233 0.130000
v 0.006111 0.084233 0.070000
v -0.013889 0.084233 0.070000
v 0.006112 0.131140 0.130000
v -0.013886 0.131139 0.130000
v 0.006112 0.131140 0.070000
v -0.013886 0.131139 0.070000
v -0.012222 0.075483 0.135923
v -0.012222 0.075483 0.142327
v 0.004444 0.075483 0.142327
v 0.004444 0.075483 0.135923
v -0.012222 0.024609 0.054758
v -0.012222 0.018326 0.053379
v 0.004444 0.018326 0.053379
v 0.004444 0.024609 0.054758
v 0.004444 0.024609 0.054758
v -0.012222 0.024609 0.054758
v 0.004444 0.024609 0.125923
v -0.012222 0.024609 0.125923
v 0.004444 0.018326 0.131092
v -0.012222 0.018326 0.131092
v 0.004444 0.023198 0.054448
vn 0.0000 -1.0000 0.0000
vn 0.0000 -0.8808 -0.4735
vn 0.0000 -0.7233 0.6905
vn 0.0000 0.1930 -0.9812
vn 0.0000 -0.4723 -0.8814
vn 0.8683 -0.4961 -0.0000
vn -0.8683 -0.4961 0.0000
vn -1.0000 0.0000 0.0000
vn 0.0000 -0.2144 0.9768
vn 1.0000 0.0000 0.0000
vn 0.0000 1.0000 -0.0000
vn 0.0000 0.0000 1.0000
vn 0.0000 -0.7071 0.7071
vn 0.0000 0.0000 -1.0000
vn -1.0000 0.0001 0.0000
vn 0.0000 0.1929 -0.9812
vn 0.0000 -0.1929 0.9812
vn 0.0000 0.2144 -0.9768
vn 0.9999 0.0117 0.0000
f 9//1 2//1 1//1
f 14//2 4//2 6//2
f 7//3 16//3 15//3
f 5//4 14//4 6//4
f 2//5 13//5 5//5
f 17//6 6//6 4//6
f 14//7 18//7 12//7
f 21//7 11//7 15//7
f 10//8 19//8 13//8
f 9//9 20//9 19//9
f 2//10 20//10 1//10
f 19//8 14//8 13//8
f 6//10 20//10 5//10
f 3//1 41//1 11//1
f 18//11 34//11 36//11
f 26//8 21//8 16//8
f 22//10 25//10 8//10
f 26//11 24//11 23//11
f 27//10 31//10 32//10
f 8//1 30//1 16//1
f 30//8 29//8 28//8
f 26//11 27//11 25//11
f 29//12 27//12 28//12
f 29//13 32//13 31//13
f 35//11 22//11 17//11
f 22//14 37//14 24//14
f 24//14 38//14 23//14
f 21//14 38//14 34//14
f 37//11 40//11 38//11
f 39//10 33//10 35//10
f 38//15 36//15 34//15
f 15//1 43//1 7//1
f 41//1 15//1 11//1
f 11//9 48//9 3//9
f 20//9 46//9 19//9
f 3//9 47//9 20//9
f 49//11 52//11 51//11
f 51//16 41//16 44//16
f 54//1 47//1 53//1
f 42//17 53//17 43//17
f 43//10 51//10 44//10
f 51//10 47//10 49//10
f 49//12 45//12 50//12
f 52//8 42//8 41//8
f 46//8 52//8 50//8
f 50//12 45//12 46//12
f 47//12 48//12 49//12
f 55//18 47//18 46//18
f 46//9 11//9 19//9
f 44//1 7//1 43//1
f 3//6 17//6 22//6
f 9//1 10//1 2//1
f 14//2 12//2 4//2
f 7//3 8//3 16//3
f 5//4 13//4 14//4
f 2//5 10//5 13//5
f 17//6 3//6 6//6
f 14//7 11//7 18//7
f 15//7 16//7 21//7
f 21//7 18//7 11//7
f 10//8 9//8 19//8
f 9//9 1//9 20//9
f 2//10 5//10 20//10
f 19//8 11//8 14//8
f 6//10 3//10 20//10
f 3//1 44//1 41//1
f 18//11 21//11 34//11
f 26//8 23//8 21//8
f 22//10 24//10 25//10
f 26//11 25//11 24//11
f 32//10 8//10 25//10
f 25//10 27//10 32//10
f 8//1 32//1 30//1
f 28//8 26//8 30//8
f 26//8 16//8 30//8
f 26//11 28//11 27//11
f 29//12 31//12 27//12
f 29//13 30//13 32//13
f 35//11 33//11 22//11
f 22//14 33//14 37//14
f 24//14 37//14 38//14
f 21//14 23//14 38//14
f 37//11 39//11 40//11
f 39//10 37//10 33//10
f 38//15 40//15 36//15
f 15//1 42//1 43//1
f 41//1 42//1 15//1
f 11//9 45//9 48//9
f 20//9 47//9 46//9
f 3//9 48//9 47//9
f 49//11 50//11 52//11
f 51//16 52//16 41//16
f 54//1 46//1 47//1
f 42//17 54//17 53//17
f 43//10 53//10 51//10
f 51//10 53//10 47//10
f 49//12 48//12 45//12
f 52//8 54//8 42//8
f 46//8 54//8 52//8
f 47//19 55//19 48//19
f 46//18 45//18 55//18
f 45//18 48//18 55//18
f 46//9 45//9 11//9
f 44//1 3//1 7//1
f 22//6 8//6 7//6
f 7//6 3//6 22//6
o slide
v 0.026111 0.084233 -0.035961
v -0.033889 0.084233 -0.035961
v 0.026111 0.084233 0.130000
v -0.033889 0.084234 0.130000
v 0.026111 0.154233 -0.015961
v -0.033889 0.154233 -0.015961
v 0.026111 0.154233 0.130000
v -0.033889 0.154233 0.130000
vn -0.0000 -1.0000 0.0000
vn 0.0000 1.0000 0.0000
vn 0.0000 0.0000 1.0000
vn 1.0000 0.0000 -0.0000
vn -1.0000 -0.0000 0.0000
vn 0.0000 0.2747 -0.9615
f 57//20 58//20 59//20
f 63//21 60//21 61//21
f 62//22 59//22 58//22
f 60//23 58//23 56//23
f 59//24 61//24 57//24
f 61//25 56//25 57//25
f 57//20 56//20 58//20
f 63//21 62//21 60//21
f 62//22 63//22 59//22
f 60//23 62//23 58//23
f 59//24 63//24 61//24
f 61//25 60//25 56//25
