v -0.012502 -0.345363 -0.014681
v -0.012502 -0.066356 -0.014681
v -0.005178 -0.345363 -0.022004
v -0.005178 -0.066356 -0.022004
v 0.005178 -0.345363 -0.022004
v 0.005178 -0.066356 -0.022004
v 0.012502 -0.345363 -0.014681
v 0.012502 -0.066356 -0.014681
v 0.012502 -0.345363 -0.004324
v 0.012502 -0.066356 -0.004324
v 0.005178 -0.345363 0.003000
v 0.005178 -0.066356 0.003000
v -0.005178 -0.345363 0.003000
v -0.005178 -0.066356 0.003000
v -0.012502 -0.345363 -0.004324
v -0.012502 -0.066356 -0.004324
v -0.020003 -0.061923 -0.017788
v -0.008286 -0.061923 -0.029505
v 0.008286 -0.061923 -0.029505
v 0.020003 -0.061923 -0.017788
v 0.020003 -0.061923 -0.001217
v 0.008286 -0.061923 0.010501
v -0.008286 -0.061923 0.010501
v -0.020003 -0.061923 -0.001217
v -0.020003 -0.054168 -0.017788
v -0.008286 -0.054168 -0.029505
v 0.008286 -0.054168 -0.029505
v 0.020003 -0.054168 -0.017788
v 0.020003 -0.054168 -0.001217
v 0.008286 -0.054168 0.010501
v -0.008286 -0.054168 0.010501
v -0.020003 -0.054168 -0.001217
v -0.010733 -0.061923 -0.035414
v -0.025911 -0.061923 -0.020235
v 0.025911 -0.061923 -0.020235
v 0.010733 -0.061923 -0.035414
v 0.010733 -0.061923 0.016409
v 0.025911 -0.061923 0.001230
v -0.025911 -0.061923 0.001230
v -0.010733 -0.061923 0.016409
v -0.010733 -0.054168 -0.035414
v -0.025911 -0.054168 -0.020235
v 0.025911 -0.054168 -0.020235
v 0.010733 -0.054168 -0.035414
v 0.010733 -0.054168 0.016409
v 0.025911 -0.054168 0.001230
v -0.025911 -0.054168 0.001230
v -0.010733 -0.054168 0.016409
v -0.026726 -0.061923 -0.044279
v -0.034777 -0.061923 -0.036228
v 0.034777 -0.061923 -0.036228
v 0.026726 -0.061923 -0.044279
v 0.026726 -0.061923 0.025274
v 0.034777 -0.061923 0.017223
v -0.034777 -0.061923 0.017223
v -0.026726 -0.061923 0.025274
v -0.026726 -0.054168 -0.044279
v -0.034777 -0.054168 -0.036228
v 0.034777 -0.054168 -0.036228
v 0.026726 -0.054168 -0.044279
v 0.026726 -0.054168 0.025274
v 0.034777 -0.054168 0.017223
v -0.034777 -0.054168 0.017223
v -0.026726 -0.054168 0.025274
v -0.000000 -0.054168 -0.050020
v -0.000000 -0.054168 -0.037971
v -0.000000 -0.061923 -0.050020
v -0.000000 -0.061923 -0.037971
v -0.028469 -0.054168 -0.009502
v -0.040518 -0.054168 -0.009502
v -0.040518 -0.061923 -0.009502
v -0.028469 -0.061923 -0.009502
v 0.000000 -0.054168 0.031015
v -0.000000 -0.054168 0.018966
v 0.000000 -0.061923 0.031015
v -0.000000 -0.061923 0.018966
v 0.028469 -0.054168 -0.009502
v 0.040518 -0.054168 -0.009502
v 0.040518 -0.061923 -0.009502
v 0.028469 -0.061923 -0.009502
v 0.000000 -0.054168 -0.025505
v 0.000000 0.831521 -0.019211
v 0.004801 -0.054168 -0.016131
v 0.004801 -0.054168 -0.002874
v 0.004801 0.831521 -0.013524
v 0.000000 -0.054168 0.006500
v -0.004801 -0.054168 -0.002874
v -0.004801 -0.054168 -0.016131
v 0.004801 0.831521 -0.005481
v -0.004801 0.831521 -0.005481
v 0.000000 0.831521 0.000206
v -0.004801 0.831521 -0.013524
v -0.000000 0.861968 -0.009502
v -0.000000 0.861968 -0.009502
v -0.000000 0.861968 -0.009502
v -0.000000 0.861968 -0.009502
v -0.000000 0.861968 -0.009502
v -0.000000 0.861968 -0.009502
v -0.008850 -0.353410 -0.013168
v -0.003666 -0.353410 -0.018352
v 0.003666 -0.353410 -0.018352
v 0.008850 -0.353410 -0.013168
v 0.008850 -0.353410 -0.005837
v 0.003666 -0.353410 -0.000653
v -0.003666 -0.353410 -0.000653
v -0.008850 -0.353410 -0.005837
vt 0.097469 0.648588
vt 0.083620 0.275523
vt 0.097469 0.275523
vt 0.083620 0.648588
vt 0.069772 0.275523
vt 0.069772 0.648588
vt 0.055924 0.275523
vt 0.055923 0.648588
vt 0.042075 0.275523
vt 0.042075 0.648588
vt 0.028227 0.275523
vt 0.139014 0.648588
vt 0.125166 0.275523
vt 0.139014 0.275523
vt 0.073697 0.691789
vt 0.079634 0.665183
vt 0.085622 0.679712
vt 0.111317 0.648588
vt 0.111317 0.275523
vt 0.048981 0.205067
vt 0.068348 0.227209
vt 0.048528 0.236119
vt 0.125880 0.894495
vt 0.108489 0.861950
vt 0.136797 0.889889
vt 0.085884 0.720341
vt 0.059226 0.714618
vt 0.073762 0.708654
vt 0.108563 0.664935
vt 0.102585 0.679443
vt 0.102846 0.720072
vt 0.129242 0.714095
vt 0.108834 0.734600
vt 0.059226 0.685689
vt 0.129242 0.685166
vt 0.114706 0.691130
vt 0.114772 0.707995
vt 0.079905 0.734848
vt 0.245975 0.762126
vt 0.267569 0.784006
vt 0.230555 0.769447
vt 0.223368 0.894661
vt 0.233737 0.886111
vt 0.233737 0.894661
vt 0.278559 0.779538
vt 0.225687 0.672598
vt 0.236056 0.664047
vt 0.236056 0.672598
vt 0.093327 0.790536
vt 0.071169 0.800905
vt 0.071169 0.790536
vt 0.225687 0.694755
vt 0.236056 0.694755
vt 0.373614 0.785290
vt 0.351457 0.795659
vt 0.351457 0.785290
vt 0.233737 0.916819
vt 0.013843 0.910583
vt 0.040777 0.890519
vt 0.036169 0.910437
vt 0.137058 0.929662
vt 0.138860 0.974202
vt 0.109119 0.957970
vt 0.210766 0.750934
vt 0.166172 0.749130
vt 0.181205 0.734293
vt 0.089410 0.985165
vt 0.069346 0.958231
vt 0.089264 0.962839
vt 0.382165 0.795659
vt 0.373614 0.795659
vt 0.193354 0.783519
vt 0.215233 0.761924
vt 0.126081 0.925199
vt 0.104513 0.947053
vt 0.062618 0.800905
vt 0.062618 0.790536
vt 0.193152 0.814260
vt 0.210135 0.847070
vt 0.182162 0.818728
vt 0.223368 0.916819
vt 0.233737 0.925369
vt 0.223368 0.925369
vt 0.236056 0.703306
vt 0.225687 0.703306
vt 0.073809 0.947254
vt 0.041038 0.930292
vt 0.051955 0.925686
vt 0.101877 0.800905
vt 0.093327 0.800905
vt 0.267367 0.814747
vt 0.249955 0.847331
vt 0.245487 0.836342
vt 0.342906 0.785290
vt 0.051753 0.894982
vt 0.068716 0.862211
vt 0.073322 0.873128
vt 0.073488 0.055488
vt 0.097781 0.038942
vt 0.097781 0.055488
vt 0.496314 0.055488
vt 0.520607 0.038942
vt 0.520607 0.055488
vt 0.355372 0.055488
vt 0.379665 0.038942
vt 0.379665 0.055488
vt 0.214430 0.055488
vt 0.238723 0.038942
vt 0.238723 0.055488
vt 0.163992 0.909597
vt 0.153029 0.860148
vt 0.039821 0.974852
vt 0.024806 0.960033
vt 0.088425 0.835016
vt 0.088571 0.857341
vt 0.038975 0.845979
vt 0.230854 0.723968
vt 0.250586 0.751196
vt 0.230707 0.746321
vt 0.305525 0.799626
vt 0.278297 0.819359
vt 0.283173 0.799480
vt 0.180358 0.863321
vt 0.165521 0.848288
vt 0.229867 0.874297
vt 0.279516 0.863972
vt 0.155196 0.798639
vt 0.182423 0.778907
vt 0.177548 0.798786
vt 0.280363 0.734944
vt 0.295200 0.749978
vt 0.437989 0.038942
vt 0.437989 0.055488
vt 0.297047 0.038942
vt 0.297047 0.055488
vt 0.214430 0.038942
vt 0.156105 0.055488
vt 0.156105 0.038942
vt 0.578931 0.038942
vt 0.578931 0.055488
vt 0.225687 0.649294
vt 0.225687 0.664047
vt 0.116630 0.800905
vt 0.131383 0.790536
vt 0.131383 0.800905
vt 0.223368 0.940122
vt 0.233737 0.940122
vt 0.396918 0.795659
vt 0.382165 0.785290
vt 0.396918 0.785290
vt 0.233737 0.954875
vt 0.355372 0.038942
vt 0.101877 0.790536
vt 0.153679 0.959187
vt 0.236056 0.634541
vt 0.225687 0.634541
vt 0.015164 0.055488
vt 0.073488 0.038942
vt 0.138014 0.845328
vt 0.411670 0.795659
vt 0.411670 0.785290
vt 0.496314 0.038942
vt 0.647333 0.022065
vt 0.632968 0.950527
vt 0.631127 0.021949
vt 0.239186 0.811488
vt 0.239347 0.786895
vt 0.214746 0.836140
vt 0.230165 0.828819
vt 0.221374 0.811371
vt 0.221535 0.786778
vt 0.712844 0.946313
vt 0.679217 0.984156
vt 0.679185 0.982591
vt 0.715112 0.022280
vt 0.727319 0.951419
vt 0.663824 0.022102
vt 0.679433 0.939635
vt 0.661019 0.942800
vt 0.698618 0.022140
vt 0.681221 0.021949
vt 0.697866 0.942864
vt 0.647317 0.945789
vt 0.679185 0.982590
vt 0.679150 0.982588
vt 0.679214 0.981272
vt 0.679150 0.982588
vt 0.090174 0.237752
vt 0.078934 0.204940
vt 0.120099 0.207188
vt 0.092576 0.205710
vt 0.099839 0.186490
vt 0.069853 0.257255
vt 0.099220 0.256910
vt 0.068974 0.214078
vt 0.120099 0.236272
vt 0.101142 0.215986
vt 0.100433 0.229252
vt 0.076850 0.237247
vt 0.071647 0.185822
vt 0.028227 0.648588
vt 0.125166 0.648588
vt 0.104026 0.872926
vt 0.223368 0.886111
vt 0.024156 0.860994
vt 0.342906 0.795659
vt 0.141666 0.909744
vt 0.294549 0.849135
vt 0.230014 0.851945
vt 0.236056 0.649294
vt 0.116630 0.790536
vt 0.223368 0.954875
vt 0.015164 0.038942
vt 0.731329 0.022202
vn -0.7071 0.0000 -0.7071
vn 0.0000 -0.0000 -1.0000
vn 0.7071 -0.0000 -0.7071
vn 1.0000 -0.0000 -0.0000
vn 0.7071 -0.0000 0.7071
vn 0.0000 0.0000 1.0000
vn 0.0000 -0.8609 0.5088
vn -0.7071 0.0000 0.7071
vn -1.0000 0.0000 0.0000
vn 0.9106 -0.4133 0.0000
vn -0.0000 -1.0000 0.0000
vn 0.5088 -0.8609 0.0000
vn -0.3598 -0.8609 0.3598
vn 0.0000 -0.8609 -0.5088
vn 0.3598 -0.8609 0.3598
vn -0.5088 -0.8609 0.0000
vn -0.3598 -0.8609 -0.3598
vn 0.3598 -0.8609 -0.3598
vn -0.0000 1.0000 0.0000
vn -0.9239 0.0000 -0.3827
vn -0.9239 0.0000 0.3827
vn 0.3827 0.0000 0.9239
vn -0.3827 0.0000 0.9239
vn 0.9239 0.0000 -0.3827
vn 0.9239 0.0000 0.3827
vn -0.3827 0.0000 -0.9239
vn 0.3827 -0.0000 -0.9239
vn 0.9777 0.0000 -0.2100
vn -0.2100 0.0000 -0.9777
vn -0.9777 0.0000 -0.2100
vn 0.2100 0.0000 0.9777
vn -0.2318 0.0000 -0.9728
vn 0.9728 0.0000 0.2318
vn 0.2318 0.0000 0.9728
vn -0.9728 0.0000 0.2318
vn -0.2318 0.0000 0.9728
vn 0.2100 0.0000 -0.9777
vn 0.9728 0.0000 -0.2318
vn -0.9777 0.0000 0.2100
vn 0.2318 0.0000 -0.9728
vn -0.2100 0.0000 0.9777
vn -0.9728 0.0000 -0.2318
vn 0.9777 0.0000 0.2100
vn 0.8901 0.0032 0.4558
vn -0.7642 0.0019 0.6450
vn 0.7641 0.0019 -0.6450
vn -0.8901 0.0032 -0.4558
vn 0.0000 0.3038 0.9527
vn 0.0000 -0.3038 0.9527
vn -0.6439 -0.4133 0.6439
vn 0.0000 -0.4133 -0.9106
vn 0.6439 -0.4133 0.6439
vn -0.9106 -0.4133 0.0000
vn -0.6439 -0.4133 -0.6439
vn 0.6439 -0.4133 -0.6439
vn 0.0000 -0.4133 0.9106
vn 0.7642 0.0019 0.6450
vn -0.7485 0.2015 0.6318
vn -0.8901 0.0032 0.4558
vn 0.8901 0.0032 -0.4558
vn -0.7641 0.0019 -0.6450
vn 0.7485 0.2015 0.6318
vn 0.7485 0.2015 -0.6318
vn 0.9878 0.1558 -0.0000
vn -0.9878 0.1558 0.0000
vn -0.7485 0.2015 -0.6318
f 2/1/1 3/2/1 1/3/1
f 4/4/2 5/5/2 3/2/2
f 6/6/3 7/7/3 5/5/3
f 8/8/4 9/9/4 7/7/4
f 10/10/5 11/11/5 9/9/5
f 12/12/6 13/13/6 11/14/6
f 12/15/7 23/16/7 14/17/7
f 13/13/8 16/18/8 15/19/8
f 16/18/9 1/3/9 15/19/9
f 9/20/10 102/21/10 7/22/10
f 24/23/11 40/24/11 39/25/11
f 8/26/12 21/27/12 10/28/12
f 14/17/13 24/29/13 16/30/13
f 6/31/14 18/32/14 19/33/14
f 10/28/15 22/34/15 12/15/15
f 16/30/16 17/35/16 2/36/16
f 2/36/17 18/32/17 4/37/17
f 8/26/18 19/33/18 20/38/18
f 30/39/19 29/40/19 86/41/19
f 27/42/20 36/43/20 19/44/20
f 30/39/19 46/45/19 29/40/19
f 22/46/21 45/47/21 30/48/21
f 24/49/9 25/50/9 17/51/9
f 23/52/6 30/48/6 31/53/6
f 20/54/4 29/55/4 21/56/4
f 18/57/2 27/42/2 19/44/2
f 79/58/11 38/59/11 80/60/11
f 34/61/11 49/62/11 33/63/11
f 48/64/19 63/65/19 64/66/19
f 67/67/11 36/68/11 68/69/11
f 20/54/22 43/70/22 28/71/22
f 32/72/19 48/64/19 31/73/19
f 17/74/11 33/63/11 18/75/11
f 17/51/23 42/76/23 34/77/23
f 25/78/19 41/79/19 42/80/19
f 26/81/24 33/82/24 41/83/24
f 23/52/25 48/84/25 40/85/25
f 19/86/11 35/87/11 20/88/11
f 24/49/26 47/89/26 32/90/26
f 28/91/19 44/92/19 27/93/19
f 29/55/27 38/94/27 21/56/27
f 21/95/11 37/96/11 22/97/11
f 56/98/8 63/99/8 55/100/8
f 54/101/5 61/102/5 53/103/5
f 52/104/3 59/105/3 51/106/3
f 50/107/1 57/108/1 49/109/1
f 71/110/11 39/25/11 55/111/11
f 35/87/11 52/112/11 51/113/11
f 37/96/11 75/114/11 76/115/11
f 38/59/11 53/116/11 37/96/11
f 73/117/19 45/118/19 74/119/19
f 40/24/11 55/111/11 39/25/11
f 78/120/19 43/121/19 77/122/19
f 42/80/19 57/123/19 58/124/19
f 65/125/19 44/92/19 60/126/19
f 43/121/19 60/126/19 44/92/19
f 70/127/19 47/128/19 69/129/19
f 46/45/19 61/130/19 62/131/19
f 51/106/28 78/132/28 79/133/28
f 49/109/29 65/134/29 67/135/29
f 58/136/30 71/137/30 70/138/30
f 53/103/31 73/139/31 75/140/31
f 76/141/32 45/47/32 37/142/32
f 69/143/33 34/144/33 42/145/33
f 66/146/34 33/82/34 68/147/34
f 77/148/35 35/149/35 80/150/35
f 36/151/36 66/146/36 68/147/36
f 67/135/37 60/152/37 52/104/37
f 41/79/19 65/125/19 57/123/19
f 67/67/11 33/63/11 49/62/11
f 39/153/38 69/143/38 47/89/38
f 70/138/39 55/100/39 63/99/39
f 70/127/19 42/80/19 58/124/19
f 34/61/11 71/110/11 50/154/11
f 48/155/40 76/141/40 40/156/40
f 75/157/41 64/158/41 56/98/41
f 48/64/19 73/117/19 74/119/19
f 40/24/11 75/114/11 56/159/11
f 46/160/42 80/150/42 38/161/42
f 54/101/43 78/132/43 62/162/43
f 78/120/19 46/45/19 62/131/19
f 79/58/11 35/87/11 51/113/11
f 84/163/44 91/164/44 86/165/44
f 28/91/19 83/166/19 84/167/19
f 26/168/19 25/78/19 81/169/19
f 25/78/19 88/170/19 81/169/19
f 31/73/19 86/41/19 87/171/19
f 29/40/19 84/167/19 86/41/19
f 27/93/19 81/169/19 83/166/19
f 32/72/19 87/171/19 88/170/19
f 90/172/2 95/173/2 97/174/2
f 87/175/45 91/176/45 90/172/45
f 83/177/46 82/178/46 85/179/46
f 88/180/47 82/178/47 81/181/47
f 88/180/9 90/172/9 92/182/9
f 83/177/4 89/183/4 84/163/4
f 94/184/6 97/174/6 96/185/6
f 91/164/48 96/185/48 95/173/48
f 85/179/2 93/186/2 98/187/2
f 89/183/6 98/187/6 96/185/6
f 92/182/6 97/174/6 94/184/6
f 82/178/49 94/184/49 93/186/49
f 100/188/11 102/21/11 104/189/11
f 15/190/50 105/191/50 13/192/50
f 5/193/51 100/188/51 3/194/51
f 9/20/52 104/189/52 103/195/52
f 1/196/53 106/197/53 15/190/53
f 3/194/54 99/198/54 1/196/54
f 7/22/55 101/199/55 5/193/55
f 13/192/56 104/189/56 11/200/56
f 2/1/1 4/4/1 3/2/1
f 4/4/2 6/6/2 5/5/2
f 6/6/3 8/8/3 7/7/3
f 8/8/4 10/10/4 9/9/4
f 10/10/5 12/201/5 11/11/5
f 12/12/6 14/202/6 13/13/6
f 12/15/7 22/34/7 23/16/7
f 13/13/8 14/202/8 16/18/8
f 16/18/9 2/1/9 1/3/9
f 9/20/10 103/195/10 102/21/10
f 24/23/11 23/203/11 40/24/11
f 8/26/12 20/38/12 21/27/12
f 14/17/13 23/16/13 24/29/13
f 6/31/14 4/37/14 18/32/14
f 10/28/15 21/27/15 22/34/15
f 16/30/16 24/29/16 17/35/16
f 2/36/17 17/35/17 18/32/17
f 8/26/18 6/31/18 19/33/18
f 27/42/20 44/204/20 36/43/20
f 30/39/19 45/118/19 46/45/19
f 22/46/21 37/142/21 45/47/21
f 24/49/9 32/90/9 25/50/9
f 23/52/6 22/46/6 30/48/6
f 20/54/4 28/71/4 29/55/4
f 18/57/2 26/81/2 27/42/2
f 79/58/11 54/205/11 38/59/11
f 34/61/11 50/154/11 49/62/11
f 48/64/19 47/128/19 63/65/19
f 67/67/11 52/112/11 36/68/11
f 20/54/22 35/149/22 43/70/22
f 32/72/19 47/128/19 48/64/19
f 17/74/11 34/61/11 33/63/11
f 17/51/23 25/50/23 42/76/23
f 25/78/19 26/168/19 41/79/19
f 26/81/24 18/57/24 33/82/24
f 23/52/25 31/53/25 48/84/25
f 19/86/11 36/68/11 35/87/11
f 24/49/26 39/153/26 47/89/26
f 28/91/19 43/121/19 44/92/19
f 29/55/27 46/206/27 38/94/27
f 21/95/11 38/59/11 37/96/11
f 56/98/8 64/158/8 63/99/8
f 54/101/5 62/162/5 61/102/5
f 52/104/3 60/152/3 59/105/3
f 50/107/1 58/136/1 57/108/1
f 71/110/11 72/207/11 39/25/11
f 35/87/11 36/68/11 52/112/11
f 37/96/11 53/116/11 75/114/11
f 38/59/11 54/205/11 53/116/11
f 73/117/19 61/130/19 45/118/19
f 40/24/11 56/159/11 55/111/11
f 78/120/19 59/208/19 43/121/19
f 42/80/19 41/79/19 57/123/19
f 65/125/19 66/209/19 44/92/19
f 43/121/19 59/208/19 60/126/19
f 70/127/19 63/65/19 47/128/19
f 46/45/19 45/118/19 61/130/19
f 51/106/28 59/105/28 78/132/28
f 49/109/29 57/108/29 65/134/29
f 58/136/30 50/107/30 71/137/30
f 53/103/31 61/102/31 73/139/31
f 76/141/32 74/210/32 45/47/32
f 69/143/33 72/211/33 34/144/33
f 66/146/34 41/83/34 33/82/34
f 77/148/35 43/70/35 35/149/35
f 36/151/36 44/212/36 66/146/36
f 67/135/37 65/134/37 60/152/37
f 41/79/19 66/209/19 65/125/19
f 67/67/11 68/69/11 33/63/11
f 39/153/38 72/211/38 69/143/38
f 70/138/39 71/137/39 55/100/39
f 70/127/19 69/129/19 42/80/19
f 34/61/11 72/207/11 71/110/11
f 48/155/40 74/210/40 76/141/40
f 75/157/41 73/213/41 64/158/41
f 48/64/19 64/66/19 73/117/19
f 40/24/11 76/115/11 75/114/11
f 46/160/42 77/148/42 80/150/42
f 54/101/43 79/133/43 78/132/43
f 78/120/19 77/122/19 46/45/19
f 79/58/11 80/60/11 35/87/11
f 84/163/57 89/183/57 91/164/57
f 28/91/19 27/93/19 83/166/19
f 25/78/19 32/72/19 88/170/19
f 31/73/19 30/39/19 86/41/19
f 29/40/19 28/91/19 84/167/19
f 27/93/19 26/168/19 81/169/19
f 32/72/19 31/73/19 87/171/19
f 90/172/58 91/176/58 95/173/58
f 87/175/59 86/214/59 91/176/59
f 83/177/60 81/181/60 82/178/60
f 88/180/61 92/182/61 82/178/61
f 88/180/9 87/175/9 90/172/9
f 83/177/4 85/179/4 89/183/4
f 98/187/6 93/186/6 94/184/6
f 97/174/6 95/173/6 96/185/6
f 96/185/6 98/187/6 94/184/6
f 91/164/62 89/183/62 96/185/62
f 85/179/63 82/178/63 93/186/63
f 89/183/64 85/179/64 98/187/64
f 92/182/65 90/172/65 97/174/65
f 82/178/66 92/182/66 94/184/66
f 106/197/11 99/198/11 100/188/11
f 100/188/11 101/199/11 102/21/11
f 102/21/11 103/195/11 104/189/11
f 104/189/11 105/191/11 106/197/11
f 106/197/11 100/188/11 104/189/11
f 15/190/50 106/197/50 105/191/50
f 5/193/51 101/199/51 100/188/51
f 9/20/52 11/200/52 104/189/52
f 1/196/53 99/198/53 106/197/53
f 3/194/54 100/188/54 99/198/54
f 7/22/55 102/21/55 101/199/55
f 13/192/56 105/191/56 104/189/56
